<?xml version="1.0" encoding="UTF-8"?>
<svg version="1.1" xmlns="http://www.w3.org/2000/svg" width="613" height="729">
<path d="M0 0 C4.17889609 3.4788417 8.06829475 7.24660543 11.9375 11.0625 C12.51910889 11.63460205 13.10071777 12.2067041 13.69995117 12.79614258 C17.8125 16.94215195 17.8125 16.94215195 17.8125 19.1875 C19.04742187 19.14109375 20.28234375 19.0946875 21.5546875 19.046875 C50.44958583 18.29684333 76.03869694 28.34925332 97.8125 47.1875 C98.63363281 47.89390625 99.45476562 48.6003125 100.30078125 49.328125 C109.05844368 57.47912875 117.41078886 68.97764347 121.8125 80.1875 C121.8125 81.1775 121.8125 82.1675 121.8125 83.1875 C122.9675 83.1565625 124.1225 83.125625 125.3125 83.09375 C145.2675101 83.12882032 164.22481831 94.07831619 178.4375 107.3125 C194.44043773 123.94637793 201.51244825 145.58493949 201.28051758 168.32299805 C200.63517621 189.71411654 192.08325029 208.60631391 176.5625 223.3125 C167.12661271 232.01578734 155.66577093 237.42219274 144.1875 242.875 C142.73014761 243.57395646 141.27312034 244.27359116 139.81640625 244.97387695 C135.48575683 247.05347556 131.14952924 249.12124845 126.8125 251.1875 C123.21219764 252.90486878 119.61263297 254.62377098 116.01416016 256.3449707 C113.95033456 257.33124453 111.88501244 258.31439591 109.81787109 259.29370117 C94.3744594 266.4702875 94.3744594 266.4702875 85.88671875 280.75390625 C84.72718523 284.74389084 83.89346242 288.74575766 83.14453125 292.83203125 C80.13759439 309.22897426 73.05966888 324.50366809 59.8125 335.1875 C42.60551176 346.63167442 23.9224738 351.67889663 3.375 348 C-8.74777669 345.36889025 -19.36003617 340.23982324 -29.3125 332.875 C-32.98830192 330.71746409 -35.97016242 329.86604902 -40.1875 330.1875 C-44.70106252 331.70823498 -48.90997197 333.79214361 -53.1875 335.875 C-75.4462541 346.22600527 -100.76285346 351.45011604 -124.83251953 343.10009766 C-133.39087813 339.78357843 -141.63261651 335.71124976 -149.90136719 331.74267578 C-154.82696857 329.4116148 -159.81473646 327.23339312 -164.8125 325.0625 C-190.68491105 313.75061815 -216.38895709 302.06787269 -241.99102783 290.15805054 C-253.78642496 284.67168717 -265.6099583 279.26410235 -277.49389648 273.97192383 C-287.00486679 269.73279078 -296.47337162 265.40497237 -305.9375 261.0625 C-316.00842195 256.44235089 -326.09576915 251.87258758 -336.25 247.4375 C-339.20717806 246.13949921 -342.16351541 244.83961871 -345.11914062 243.53808594 C-347.27048044 242.59114037 -349.42292037 241.64669206 -351.57617188 240.70410156 C-377.11960632 229.47097381 -377.11960632 229.47097381 -386.1875 221.1875 C-387.27417969 220.259375 -387.27417969 220.259375 -388.3828125 219.3125 C-402.79147552 206.16391017 -409.00753145 186.70661153 -410.06201172 167.76318359 C-410.92153071 145.52737868 -402.1977832 124.40634062 -387.1875 108.1875 C-374.28023505 94.58254505 -355.12230081 83.75039909 -335.93994141 83.11279297 C-333.3965724 83.08939537 -330.85583953 83.10010285 -328.3125 83.125 C-327.43335938 83.12951172 -326.55421875 83.13402344 -325.6484375 83.13867188 C-323.49476197 83.15037663 -321.34112183 83.16830931 -319.1875 83.1875 C-318.93871094 82.33285156 -318.68992187 81.47820312 -318.43359375 80.59765625 C-317.10289021 76.95595031 -315.35714849 73.8517718 -313.25 70.625 C-312.8566748 70.02147705 -312.46334961 69.4179541 -312.05810547 68.79614258 C-304.84627413 57.97839557 -296.65857339 48.96426211 -286.1875 41.1875 C-285.38828125 40.57390625 -284.5890625 39.9603125 -283.765625 39.328125 C-264.18747465 24.86844533 -236.42705495 15.62289487 -211.95605469 18.44482422 C-211.24610352 18.55455566 -210.53615234 18.66428711 -209.8046875 18.77734375 C-205.81245048 19.38147832 -202.22705968 19.75576957 -198.1875 19.1875 C-194.19803138 16.19922965 -191.46154243 12.71321466 -188.46875 8.76806641 C-168.99219499 -15.25846125 -132.16731049 -25.40652221 -103.1171875 -29.40234375 C-66.9549754 -33.1767297 -28.7758152 -21.939827 0 0 Z " fill="#76B1F5" transform="translate(411.1875,127.8125)"/>
<path d="M0 0 C4.17889609 3.4788417 8.06829475 7.24660543 11.9375 11.0625 C12.51910889 11.63460205 13.10071777 12.2067041 13.69995117 12.79614258 C17.8125 16.94215195 17.8125 16.94215195 17.8125 19.1875 C19.04742187 19.14109375 20.28234375 19.0946875 21.5546875 19.046875 C50.44958583 18.29684333 76.03869694 28.34925332 97.8125 47.1875 C98.63363281 47.89390625 99.45476562 48.6003125 100.30078125 49.328125 C109.05844368 57.47912875 117.41078886 68.97764347 121.8125 80.1875 C121.8125 81.1775 121.8125 82.1675 121.8125 83.1875 C122.9675 83.1565625 124.1225 83.125625 125.3125 83.09375 C145.2675101 83.12882032 164.22481831 94.07831619 178.4375 107.3125 C194.44043773 123.94637793 201.51244825 145.58493949 201.28051758 168.32299805 C200.63517621 189.71411654 192.08325029 208.60631391 176.5625 223.3125 C167.12661271 232.01578734 155.66577093 237.42219274 144.1875 242.875 C142.73014761 243.57395646 141.27312034 244.27359116 139.81640625 244.97387695 C135.48575683 247.05347556 131.14952924 249.12124845 126.8125 251.1875 C123.21219764 252.90486878 119.61263297 254.62377098 116.01416016 256.3449707 C113.95033456 257.33124453 111.88501244 258.31439591 109.81787109 259.29370117 C94.3744594 266.4702875 94.3744594 266.4702875 85.88671875 280.75390625 C84.72718523 284.74389084 83.89346242 288.74575766 83.14453125 292.83203125 C80.13759439 309.22897426 73.05966888 324.50366809 59.8125 335.1875 C42.60551176 346.63167442 23.9224738 351.67889663 3.375 348 C-8.74777669 345.36889025 -19.36003617 340.23982324 -29.3125 332.875 C-32.98830192 330.71746409 -35.97016242 329.86604902 -40.1875 330.1875 C-44.70106252 331.70823498 -48.90997197 333.79214361 -53.1875 335.875 C-75.4462541 346.22600527 -100.76285346 351.45011604 -124.83251953 343.10009766 C-133.39087813 339.78357843 -141.63261651 335.71124976 -149.90136719 331.74267578 C-154.82696857 329.4116148 -159.81473646 327.23339312 -164.8125 325.0625 C-190.68491105 313.75061815 -216.38895709 302.06787269 -241.99102783 290.15805054 C-253.78642496 284.67168717 -265.6099583 279.26410235 -277.49389648 273.97192383 C-287.00486679 269.73279078 -296.47337162 265.40497237 -305.9375 261.0625 C-316.00842195 256.44235089 -326.09576915 251.87258758 -336.25 247.4375 C-339.20717806 246.13949921 -342.16351541 244.83961871 -345.11914062 243.53808594 C-347.27048044 242.59114037 -349.42292037 241.64669206 -351.57617188 240.70410156 C-377.11960632 229.47097381 -377.11960632 229.47097381 -386.1875 221.1875 C-387.27417969 220.259375 -387.27417969 220.259375 -388.3828125 219.3125 C-402.79147552 206.16391017 -409.00753145 186.70661153 -410.06201172 167.76318359 C-410.92153071 145.52737868 -402.1977832 124.40634062 -387.1875 108.1875 C-374.28023505 94.58254505 -355.12230081 83.75039909 -335.93994141 83.11279297 C-333.3965724 83.08939537 -330.85583953 83.10010285 -328.3125 83.125 C-327.43335938 83.12951172 -326.55421875 83.13402344 -325.6484375 83.13867188 C-323.49476197 83.15037663 -321.34112183 83.16830931 -319.1875 83.1875 C-318.93871094 82.33285156 -318.68992187 81.47820312 -318.43359375 80.59765625 C-317.10289021 76.95595031 -315.35714849 73.8517718 -313.25 70.625 C-312.8566748 70.02147705 -312.46334961 69.4179541 -312.05810547 68.79614258 C-304.84627413 57.97839557 -296.65857339 48.96426211 -286.1875 41.1875 C-285.38828125 40.57390625 -284.5890625 39.9603125 -283.765625 39.328125 C-264.18747465 24.86844533 -236.42705495 15.62289487 -211.95605469 18.44482422 C-211.24610352 18.55455566 -210.53615234 18.66428711 -209.8046875 18.77734375 C-205.81245048 19.38147832 -202.22705968 19.75576957 -198.1875 19.1875 C-194.19803138 16.19922965 -191.46154243 12.71321466 -188.46875 8.76806641 C-168.99219499 -15.25846125 -132.16731049 -25.40652221 -103.1171875 -29.40234375 C-66.9549754 -33.1767297 -28.7758152 -21.939827 0 0 Z M-120.1875 -7.8125 C-121.34378906 -7.5340625 -122.50007813 -7.255625 -123.69140625 -6.96875 C-147.36257821 -0.83275906 -169.7751775 11.99558887 -185.1875 31.1875 C-185.69152344 31.76628906 -186.19554687 32.34507812 -186.71484375 32.94140625 C-189.36300367 35.66723833 -189.36300367 35.66723833 -190.1875 39.1875 C-191.36183594 38.9709375 -192.53617188 38.754375 -193.74609375 38.53125 C-220.12447727 33.86827886 -245.96621035 36.34337462 -269.0625 51.125 C-270.45387886 52.12339399 -271.82859748 53.14533416 -273.1875 54.1875 C-274.01765625 54.8165625 -274.8478125 55.445625 -275.703125 56.09375 C-291.96019913 68.7489574 -302.52245437 84.76658244 -309.1875 104.1875 C-309.1875 105.1775 -309.1875 106.1675 -309.1875 107.1875 C-310.1775 106.56875 -311.1675 105.95 -312.1875 105.3125 C-323.54779568 98.90529324 -335.16541893 100.71464298 -347.19848633 103.99755859 C-360.66279931 107.92704618 -372.19618316 115.36772821 -379.8125 127.4375 C-381.77681259 131.08389636 -383.01986388 133.99659689 -383.1875 138.1875 C-383.24808594 139.07179688 -383.30867188 139.95609375 -383.37109375 140.8671875 C-383.75714241 150.06216467 -381.90967006 157.13025697 -376.125 164.375 C-367.89550519 172.87014549 -356.83265605 177.42218066 -346.1875 182.125 C-344.74143273 182.77166467 -343.29580442 183.41931171 -341.85058594 184.06787109 C-339.59295221 185.08075742 -337.33501495 186.09290952 -335.07562256 187.10186768 C-327.57583029 190.45138817 -320.10971801 193.87290759 -312.64501953 197.29974365 C-293.17945854 206.23007028 -273.65340468 215.02194043 -254.0546875 223.65625 C-250.39057201 225.27071313 -246.72649082 226.88525397 -243.0625 228.5 C-242.14097137 228.90607483 -241.21944275 229.31214966 -240.26998901 229.73052979 C-227.1747383 235.50435593 -214.12799578 241.37336225 -201.12509155 247.35202026 C-188.39604204 253.2037634 -175.61330556 258.92765713 -162.79614258 264.58374023 C-156.36818984 267.42280356 -149.95234746 270.27263857 -143.59765625 273.2734375 C-130.61001315 279.4017918 -117.75692764 284.58696804 -103.1875 285.1875 C-102.30320312 285.22746094 -101.41890625 285.26742188 -100.5078125 285.30859375 C-80.30960783 285.76399094 -63.34309426 279.56108463 -45.5 270.9375 C-44.01498079 270.22773073 -42.52953632 269.51885061 -41.04370117 268.81079102 C-37.95451323 267.33784122 -34.86731909 265.8608196 -31.78125 264.38134766 C-27.40635008 262.28755668 -23.01813843 260.22316364 -18.625 258.16796875 C0.71961388 249.10946748 19.93029287 239.79201291 39.10449219 230.37841797 C49.46580705 225.29164797 59.83399362 220.22395882 70.25 215.25 C82.49914064 209.39545801 94.62353661 203.3928061 106.55932617 196.92285156 C111.50457981 194.2759647 116.53430042 192.07523256 121.8125 190.1875 C121.8125 189.5275 121.8125 188.8675 121.8125 188.1875 C122.76125 187.94 123.71 187.6925 124.6875 187.4375 C134.37816952 184.62720584 143.04238993 180.11597903 151.8125 175.1875 C152.74964844 174.67960938 153.68679688 174.17171875 154.65234375 173.6484375 C159.50407728 170.91979338 163.14936289 168.22769296 166.55859375 163.80078125 C167.8125 162.1875 167.8125 162.1875 169.3359375 160.765625 C173.3382408 156.488031 175.0620262 150.05484385 175.3125 144.3125 C175.08181041 138.27612243 172.96372563 132.77684517 170.8125 127.1875 C170.1525 127.1875 169.4925 127.1875 168.8125 127.1875 C168.7815625 126.1665625 168.7815625 126.1665625 168.75 125.125 C166.54651799 118.22075637 160.08479211 114.4227971 153.93359375 111.23828125 C153.23363281 110.89152344 152.53367187 110.54476562 151.8125 110.1875 C150.8225 109.671875 149.8325 109.15625 148.8125 108.625 C147.8225 108.150625 146.8325 107.67625 145.8125 107.1875 C144.86697266 106.6925 144.86697266 106.6925 143.90234375 106.1875 C126.45036805 97.57236862 102.46738468 99.75695347 84.28515625 105.25390625 C73.06390618 109.37516537 62.26088335 114.70237678 52.703125 121.90234375 C50.8125 123.1875 50.8125 123.1875 48.8125 123.1875 C49.8025 120.5475 50.7925 117.9075 51.8125 115.1875 C51.8125 115.8475 51.8125 116.5075 51.8125 117.1875 C55.32120978 116.01793007 55.70636732 115.20884731 57.75 112.25 C67.9726479 98.83277463 83.1438506 89.91286772 99.65234375 86.7578125 C100.36519531 86.56960937 101.07804687 86.38140625 101.8125 86.1875 C102.1425 85.5275 102.4725 84.8675 102.8125 84.1875 C101.5996838 81.92032599 100.34743963 79.82848812 98.9375 77.6875 C98.5262085 77.0589209 98.11491699 76.4303418 97.69116211 75.78271484 C85.52217999 57.58606272 69.18884969 47.05896372 48.8125 40.1875 C47.84828125 39.84332031 46.8840625 39.49914062 45.890625 39.14453125 C32.75251962 35.10057685 16.04645963 35.85507022 2.8125 39.1875 C1.80832031 39.43242187 0.80414063 39.67734375 -0.23046875 39.9296875 C-25.1175503 46.78045538 -44.50564427 63.19460241 -59.5 83.75 C-60.33615845 84.89263306 -60.33615845 84.89263306 -61.18920898 86.05834961 C-64.80110713 91.15482163 -64.80110713 91.15482163 -66.1875 97.1875 C-66.8475 97.1875 -67.5075 97.1875 -68.1875 97.1875 C-67.06282191 92.86227523 -65.91702168 88.54353478 -64.74316406 84.23144531 C-64.23761823 82.37185403 -63.73949269 80.51024949 -63.2421875 78.6484375 C-57.71484649 59.18662334 -43.59435957 43.21610596 -26.1875 33.1875 C-18.44652011 29.18335151 -10.6800742 26.13862415 -2.1875 24.1875 C-7.17717498 12.34035726 -22.94898205 4.92832655 -34 0 C-61.11425909 -11.02546668 -91.49389632 -15.43783339 -120.1875 -7.8125 Z " fill="#2F74EA" transform="translate(411.1875,127.8125)"/>
<path d="M0 0 C0.69277039 0.26708771 1.38554077 0.53417542 2.0993042 0.80935669 C9.08452159 3.54619423 15.89925423 6.63744145 22.69638062 9.80755615 C26.50124258 11.58126584 30.31556818 13.33445049 34.12890625 15.08984375 C34.91421219 15.45181854 35.69951813 15.81379333 36.50862122 16.18673706 C44.7322003 19.97084006 53.00298694 23.64605136 61.28125 27.30859375 C74.4049957 33.11964422 87.50750612 38.97604877 100.59375 44.87109375 C101.40443939 45.23628113 102.21512878 45.60146851 103.05038452 45.97772217 C106.9699374 47.74358725 110.88920505 49.51008437 114.80834961 51.27685547 C119.94567386 53.5925491 125.08400002 55.90601381 130.22265625 58.21875 C131.02828003 58.58141464 131.83390381 58.94407928 132.66394043 59.31773376 C137.29505996 61.40177965 141.92883206 63.47979983 146.56455994 65.55357361 C155.31071215 69.46714914 164.01885332 73.46179721 172.72192383 77.4699707 C175.93667063 78.95037987 179.15265072 80.42805455 182.36987305 81.90307617 C183.16778763 82.26891312 183.96570221 82.63475006 184.78779602 83.01167297 C186.39394148 83.74800888 188.00013241 84.48424564 189.60636902 85.22038269 C194.03080243 87.25017852 198.44734282 89.29572245 202.85652161 91.35842896 C222.08036497 100.34699993 222.08036497 100.34699993 242.59375 105.43359375 C243.8621875 105.65015625 243.8621875 105.65015625 245.15625 105.87109375 C247.3141402 106.17936378 249.41639599 106.34061066 251.59375 106.43359375 C252.50382812 106.48515625 253.41390625 106.53671875 254.3515625 106.58984375 C261.01213337 106.79016167 267.45416897 106.21039766 274.03125 105.24609375 C274.76907715 105.14522461 275.5069043 105.04435547 276.26708984 104.94042969 C288.3392632 103.00533515 299.43314688 97.79436924 310.29437256 92.39065552 C313.67271628 90.71048429 317.06364765 89.05600117 320.453125 87.3984375 C321.48341324 86.89352028 321.48341324 86.89352028 322.53451538 86.37840271 C329.13417176 83.15156638 335.79365679 80.06395177 342.46875 76.99609375 C356.26842127 70.63656218 369.93096298 64.00857273 383.59024048 57.35443115 C390.29072888 54.09121996 397.002929 50.85264301 403.71875 47.62109375 C404.82839111 47.08693848 405.93803223 46.5527832 407.08129883 46.00244141 C412.05307016 43.61093776 417.02714555 41.22448799 422.0078125 38.8515625 C433.46148402 33.39417536 444.88038077 27.86857471 456.28344727 22.30639648 C458.83323919 21.06371635 461.38421399 19.82349733 463.93554688 18.58398438 C474.3915596 13.50210437 474.3915596 13.50210437 484.79888916 8.32156372 C486.66498718 7.38252279 488.53443908 6.45055924 490.40527344 5.52099609 C492.61369457 4.42117603 494.81554447 3.30800416 497.00878906 2.17822266 C507.08818142 -2.80523799 516.75480331 -3.80459779 527.59375 -0.56640625 C539.82545335 4.08132699 547.50916972 11.42077672 553.5 22.953125 C557.1144102 31.15009098 556.8443722 41.83077092 554.03125 50.24609375 C546.80703735 67.11925478 532.93458532 74.79052784 517.09375 82.18359375 C515.62513885 82.88141005 514.15704904 83.58032448 512.68945312 84.28027344 C502.75234323 89.00606246 492.7604013 93.6159662 482.7644043 98.21557617 C467.61958836 105.21655199 452.67199332 112.62971432 437.68835449 119.96720886 C431.04701073 123.21731382 424.38976045 126.43225373 417.71875 129.62109375 C408.41196023 134.07289752 399.12183609 138.55828285 389.84051514 143.06289673 C388.33535002 143.7933603 386.83002726 144.52349914 385.32452393 145.25326538 C380.40914778 147.63630291 375.49879463 150.02936172 370.59375 152.43359375 C369.85894409 152.79333282 369.12413818 153.1530719 368.36706543 153.52371216 C366.17352293 154.59999834 363.98283366 155.68187886 361.79296875 156.765625 C361.12974106 157.09073059 360.46651337 157.41583618 359.78318787 157.75079346 C347.08792378 164.06430537 341.20381956 174.32019467 336.59375 187.43359375 C335.55623495 190.79776449 334.57490112 194.17762106 333.59375 197.55859375 C328.9407771 213.49292836 322.29829142 224.79905751 307.59375 233.43359375 C292.96543893 239.76782491 278.90829474 241.74639245 263.59375 236.43359375 C248.21033582 230.31942149 240.55597428 220.37716688 231.6953125 207.046875 C220.33189621 189.99483431 207.2843793 181.67606972 188.78125 173.68359375 C178.13618492 169.04256811 167.57492101 164.23681884 157.03125 159.37109375 C143.97596858 153.34951754 130.895809 147.38750398 117.78125 141.49609375 C116.9516275 141.12337341 116.122005 140.75065308 115.26724243 140.36663818 C111.05635813 138.47523841 106.84496955 136.58496475 102.63330078 134.6953125 C94.32598098 130.96773337 86.02220927 127.23226291 77.71875 123.49609375 C76.89890625 123.12721039 76.0790625 122.75832703 75.234375 122.37826538 C62.24488636 116.53302735 49.2603168 110.67693763 36.28125 104.80859375 C35.41032715 104.41485565 34.5394043 104.02111755 33.64208984 103.615448 C24.2819692 99.38250291 14.928339 95.13593366 5.58984375 90.85546875 C4.79122421 90.4895462 3.99260468 90.12362366 3.16978455 89.74661255 C-0.5696904 88.03268353 -4.30798161 86.31625417 -8.04418945 84.59521484 C-9.38083017 83.98102738 -10.71765702 83.36724478 -12.0546875 82.75390625 C-13.00273758 82.31865128 -13.00273758 82.31865128 -13.96994019 81.87460327 C-18.87182006 79.6401911 -23.83394065 77.58595053 -28.84838867 75.61865234 C-33.24363636 73.58233162 -36.80525709 70.63282298 -40.40625 67.43359375 C-41.293125 66.64984375 -42.18 65.86609375 -43.09375 65.05859375 C-51.76943663 55.21051703 -55.22512288 46.4302535 -54.75 33.34375 C-53.71796144 21.60431141 -46.54750796 12.42990671 -37.72265625 5.00390625 C-26.20959972 -2.80089767 -12.97636318 -5.12239816 0 0 Z " fill="#2D70E7" transform="translate(56.40625,486.56640625)"/>
<path d="M0 0 C0.66708984 -0.04576172 1.33417969 -0.09152344 2.02148438 -0.13867188 C10.02264028 -0.30796956 17.0242003 3.26757739 24.1875 6.4375 C24.90054291 6.75071198 25.61358582 7.06392395 26.34823608 7.3866272 C31.87563479 9.82140463 37.37608785 12.3142237 42.875 14.8125 C46.42503637 16.41961779 49.97614693 18.02435458 53.52734375 19.62890625 C54.4197879 20.03245834 55.31223206 20.43601044 56.23171997 20.85179138 C64.36535617 24.52630123 72.52353724 28.14417843 80.68603516 31.7539978 C93.09594734 37.24389023 105.45157151 42.82853637 117.74511719 48.57543945 C126.69809941 52.75869655 135.6862331 56.85959306 144.6875 60.9375 C155.14929173 65.67798513 165.58866916 70.46217254 176 75.3125 C186.07814764 80.00301158 196.1641386 84.66689935 206.32958984 89.16552734 C209.07770054 90.38863145 211.81852374 91.62725665 214.55897522 92.86740112 C242.8934366 105.65745047 271.45261491 114.08714427 302.15136719 103.22412109 C307.48326877 101.16424257 312.71518399 98.82639966 317.90576172 96.43530273 C326.52406664 92.54952268 326.52406664 92.54952268 331.1875 93.4375 C334.28841526 94.79486173 337.1902872 96.44327733 340.125 98.125 C361.95821409 110.09140217 384.38386628 113.46453148 408.58251953 107.21679688 C420.82226531 103.5551972 432.04899888 97.37257558 441.1875 88.4375 C442.25484375 87.41076172 442.25484375 87.41076172 443.34375 86.36328125 C454.94500507 74.29351396 460.68158937 58.71419099 464.125 42.625 C466.13355665 33.36647103 469.49097991 27.19578157 477.1875 21.4375 C479.29360058 20.29825337 481.43402686 19.22110507 483.59765625 18.1953125 C484.50988197 17.7590303 484.50988197 17.7590303 485.4405365 17.31393433 C487.37415894 16.39062123 489.31184465 15.47625369 491.25 14.5625 C493.15524852 13.65731888 495.05959715 12.75027008 496.9637146 11.8427124 C498.21575614 11.24631285 499.4683782 10.65113043 500.72158813 10.05718994 C505.76112047 7.66286641 510.73817151 5.15477785 515.69702148 2.59716797 C523.64001238 -1.10141127 532.27388653 -0.07914583 540.45703125 2.40234375 C552.72383861 7.05285012 560.49622151 15.00244007 566.05859375 26.703125 C569.67866176 35.47145581 569.32225555 45.28746073 566.25 54.1875 C560.87412298 66.65528259 550.72652659 74.306085 538.89453125 80.13671875 C537.83942352 80.6602166 537.83942352 80.6602166 536.76300049 81.19429016 C534.57297362 82.27906712 532.38071157 83.35917792 530.1875 84.4375 C529.19446365 84.92597412 529.19446365 84.92597412 528.18136597 85.42431641 C523.60662627 87.67141046 519.02364441 89.90129015 514.4375 92.125 C513.73327911 92.46688354 513.02905823 92.80876709 512.30349731 93.16101074 C502.45609254 97.93840307 492.56751873 102.61136073 482.625 107.1875 C472.95527285 111.63842756 463.39883202 116.26903431 453.89648438 121.06616211 C446.41440154 124.84009589 438.88050877 128.4898745 431.31201172 132.08691406 C425.80896782 134.70352567 420.31586005 137.3392031 414.8359375 140.00390625 C401.19473238 146.63531003 387.52328372 153.17413477 373.74731445 159.52294922 C365.67135781 163.25573977 357.65078558 167.09057347 349.65081787 170.98251343 C339.40754043 175.96499362 329.15861618 180.93684393 318.84985352 185.78271484 C317.13349211 186.59154518 315.42114357 187.40887436 313.70898438 188.2265625 C294.86015214 197.03870629 275.80332484 200.40677098 255.1875 197.25 C254.48850586 197.14921143 253.78951172 197.04842285 253.06933594 196.94458008 C241.05072801 194.90064595 229.89277687 189.05554526 218.91183472 183.96786499 C215.04021871 182.17443994 211.16219596 180.39494263 207.28515625 178.61328125 C206.50588272 178.25474564 205.72660919 177.89621002 204.92372131 177.52680969 C198.01039983 174.34856198 191.07298186 171.22682225 184.125 168.125 C172.35929612 162.86777223 160.61429785 157.56590595 148.875 152.25 C134.9019461 145.92389416 120.92481658 139.6070155 106.9375 133.3125 C106.11614563 132.94286133 105.29479126 132.57322266 104.44854736 132.19238281 C93.02160638 127.05100307 81.58541815 121.93056147 70.14474487 116.81982422 C56.19298015 110.58703677 42.2555246 104.32465354 28.35522461 97.9777832 C27.01939013 97.3679539 25.68353401 96.758172 24.34765625 96.1484375 C23.35707466 95.69627113 23.35707466 95.69627113 22.34648132 95.23497009 C18.0590115 93.28117447 13.76237592 91.3489142 9.45936584 89.42959595 C6.46233156 88.09220871 3.46811399 86.74857784 0.47402954 85.40460205 C-0.93932781 84.77224392 -2.35401389 84.1428451 -3.77017212 83.51678467 C-19.58646635 76.52227745 -32.844025 69.49903619 -39.90234375 52.91796875 C-43.28693577 43.69386603 -42.5356538 34.39319583 -39.13671875 25.2578125 C-33.61379853 13.49513285 -23.74790725 5.92254434 -11.8125 1.4375 C-7.96352394 0.17085183 -4.01892387 0.10585721 0 0 Z " fill="#854AE5" transform="translate(43.8125,380.5625)"/>
<path d="M0 0 C0.69277039 0.26708771 1.38554077 0.53417542 2.0993042 0.80935669 C9.08452159 3.54619423 15.89925423 6.63744145 22.69638062 9.80755615 C26.50124258 11.58126584 30.31556818 13.33445049 34.12890625 15.08984375 C34.91421219 15.45181854 35.69951813 15.81379333 36.50862122 16.18673706 C44.7322003 19.97084006 53.00298694 23.64605136 61.28125 27.30859375 C74.4049957 33.11964422 87.50750612 38.97604877 100.59375 44.87109375 C101.40443939 45.23628113 102.21512878 45.60146851 103.05038452 45.97772217 C106.9699374 47.74358725 110.88920505 49.51008437 114.80834961 51.27685547 C119.94567386 53.5925491 125.08400002 55.90601381 130.22265625 58.21875 C131.02828003 58.58141464 131.83390381 58.94407928 132.66394043 59.31773376 C137.29505996 61.40177965 141.92883206 63.47979983 146.56455994 65.55357361 C155.31071215 69.46714914 164.01885332 73.46179721 172.72192383 77.4699707 C175.93667063 78.95037987 179.15265072 80.42805455 182.36987305 81.90307617 C183.16778763 82.26891312 183.96570221 82.63475006 184.78779602 83.01167297 C186.39394148 83.74800888 188.00013241 84.48424564 189.60636902 85.22038269 C194.03080243 87.25017852 198.44734282 89.29572245 202.85652161 91.35842896 C222.08036497 100.34699993 222.08036497 100.34699993 242.59375 105.43359375 C243.8621875 105.65015625 243.8621875 105.65015625 245.15625 105.87109375 C247.3141402 106.17936378 249.41639599 106.34061066 251.59375 106.43359375 C252.50382812 106.48515625 253.41390625 106.53671875 254.3515625 106.58984375 C261.01213337 106.79016167 267.45416897 106.21039766 274.03125 105.24609375 C274.76907715 105.14522461 275.5069043 105.04435547 276.26708984 104.94042969 C288.3392632 103.00533515 299.43314688 97.79436924 310.29437256 92.39065552 C313.67271628 90.71048429 317.06364765 89.05600117 320.453125 87.3984375 C321.48341324 86.89352028 321.48341324 86.89352028 322.53451538 86.37840271 C329.13417176 83.15156638 335.79365679 80.06395177 342.46875 76.99609375 C356.26842127 70.63656218 369.93096298 64.00857273 383.59024048 57.35443115 C390.29072888 54.09121996 397.002929 50.85264301 403.71875 47.62109375 C404.82839111 47.08693848 405.93803223 46.5527832 407.08129883 46.00244141 C412.05307016 43.61093776 417.02714555 41.22448799 422.0078125 38.8515625 C433.46148402 33.39417536 444.88038077 27.86857471 456.28344727 22.30639648 C458.83323919 21.06371635 461.38421399 19.82349733 463.93554688 18.58398438 C474.3915596 13.50210437 474.3915596 13.50210437 484.79888916 8.32156372 C486.66498718 7.38252279 488.53443908 6.45055924 490.40527344 5.52099609 C492.61369457 4.42117603 494.81554447 3.30800416 497.00878906 2.17822266 C507.08165374 -2.80201057 516.76139637 -3.81311998 527.59375 -0.56640625 C535.56207219 2.51777937 542.33697599 6.56886534 547.59375 13.43359375 C547.59375 14.09359375 547.59375 14.75359375 547.59375 15.43359375 C546.60652954 15.82381714 546.60652954 15.82381714 545.59936523 16.22192383 C536.89783037 19.74746318 528.49650316 23.79361903 520.07403564 27.93295288 C515.96817481 29.95064253 511.8566529 31.95674833 507.74609375 33.96484375 C506.94465942 34.35677414 506.1432251 34.74870453 505.31750488 35.1525116 C499.13367989 38.17528881 492.93583215 41.16723606 486.71875 44.12109375 C485.48680908 44.70661011 485.48680908 44.70661011 484.22998047 45.30395508 C480.77670586 46.9405256 477.31860141 48.56529604 473.84765625 50.1640625 C466.10240638 53.7355304 458.46376355 57.47771839 450.84375 61.30859375 C439.20335805 67.16062887 427.47119587 72.78855073 415.6484375 78.26171875 C409.13515373 81.27961869 402.68370072 84.37525593 396.28125 87.62109375 C391.39369807 90.09702847 386.52990556 92.32366745 381.40112305 94.26245117 C377.96216428 95.69707029 374.66173721 97.36881386 371.34375 99.05859375 C362.13245484 103.70627046 352.79894526 108.07532341 343.44824219 112.43359375 C331.05070496 118.21722843 318.75660922 124.17214067 306.65625 130.55859375 C282.29510033 142.64040717 255.56943371 146.45530816 229.34033203 138.37939453 C221.31344546 135.61529155 213.72586579 131.80639059 206.09912109 128.10791016 C200.05485044 125.22090583 193.9420688 122.4851059 187.83654785 119.73065186 C178.89429072 115.69259268 169.95383667 111.64952818 161.09375 107.43359375 C142.92967073 98.79238254 124.53042643 90.6142723 106.1706543 82.39868164 C101.9459055 80.50540663 97.73718045 78.57995753 93.53515625 76.63671875 C86.6649821 73.46032035 79.77571404 70.3271202 72.88308716 67.19985962 C56.2472653 59.65090225 39.62472031 52.07339513 23.04296875 44.40625 C21.93663086 43.89473389 20.83029297 43.38321777 19.69042969 42.85620117 C17.48126605 41.83461609 15.272278 40.81265118 13.06347656 39.7902832 C5.40434355 36.25132755 -2.2790033 32.76997105 -10.00292969 29.37451172 C-13.50277337 27.8197822 -16.88167919 26.21060358 -20.1875 24.2734375 C-22.7803268 22.79137266 -24.88172931 21.79486656 -27.71875 20.99609375 C-32.91071563 19.38479407 -37.61035084 16.96670959 -42.40625 14.43359375 C-38.22318421 5.97491647 -35.1572789 2.77257323 -26.24609375 -0.62109375 C-17.12517222 -3.65721894 -9.01707255 -3.55947465 0 0 Z " fill="#264FC2" transform="translate(56.40625,486.56640625)"/>
<path d="M0 0 C1.07051605 0.4694101 1.07051605 0.4694101 2.16265869 0.94830322 C7.6894277 3.38326738 13.18904506 5.87693142 18.6875 8.375 C22.23753637 9.98211779 25.78864693 11.58685458 29.33984375 13.19140625 C30.2322879 13.59495834 31.12473206 13.99851044 32.04421997 14.41429138 C40.17785617 18.08880123 48.33603724 21.70667843 56.49853516 25.3164978 C68.90844734 30.80639023 81.26407151 36.39103637 93.55761719 42.13793945 C102.51059941 46.32119655 111.4987331 50.42209306 120.5 54.5 C130.96179173 59.24048513 141.40116916 64.02467254 151.8125 68.875 C161.89064764 73.56551158 171.9766386 78.22939935 182.14208984 82.72802734 C184.89020054 83.95113145 187.63102374 85.18975665 190.37147522 86.42990112 C218.7059366 99.21995047 247.26511491 107.64964427 277.96386719 96.78662109 C283.29576877 94.72674257 288.52768399 92.38889966 293.71826172 89.99780273 C302.33656664 86.11202268 302.33656664 86.11202268 307 87 C310.10091526 88.35736173 313.0027872 90.00577733 315.9375 91.6875 C337.77071409 103.65390217 360.19636628 107.02703148 384.39501953 100.77929688 C396.63476531 97.1176972 407.86149888 90.93507558 417 82 C418.06734375 80.97326172 418.06734375 80.97326172 419.15625 79.92578125 C430.75750507 67.85601396 436.49408937 52.27669099 439.9375 36.1875 C441.94605665 26.92897103 445.30347991 20.75828157 453 15 C455.10610058 13.86075337 457.24652686 12.78360507 459.41015625 11.7578125 C460.32238197 11.3215303 460.32238197 11.3215303 461.2530365 10.87643433 C463.18665894 9.95312123 465.12434465 9.03875369 467.0625 8.125 C468.96774852 7.21981888 470.87209715 6.31277008 472.7762146 5.4052124 C474.02825614 4.80881285 475.2808782 4.21363043 476.53408813 3.61968994 C481.57362047 1.22536641 486.55067151 -1.28272215 491.50952148 -3.84033203 C499.45387143 -7.53954409 508.06906077 -6.50582028 516.2578125 -4.046875 C523.0366777 -1.45893216 529.38551041 2.34352889 534 8 C534.62109375 10.1484375 534.62109375 10.1484375 535 12 C534.49774902 12.235979 533.99549805 12.47195801 533.47802734 12.71508789 C521.39644235 18.38763545 521.39644235 18.38763545 509.4375 24.3125 C504.86176024 26.63573529 500.24288249 28.81159209 495.56640625 30.92578125 C494.40633057 31.45196045 493.24625488 31.97813965 492.05102539 32.52026367 C489.7244936 33.5716417 487.39435433 34.61508143 485.06030273 35.6496582 C478.25882626 38.72604638 473.27351432 41.72648568 468 47 C468 46.01 468 45.02 468 44 C466.55901389 44.76429661 465.12233946 45.53672555 463.6875 46.3125 C462.88699219 46.74175781 462.08648438 47.17101562 461.26171875 47.61328125 C456.36213754 50.61734227 455.1532687 53.91266256 453.375 59.25 C445.24865759 82.13632722 428.82200386 101.22146015 406.95410156 112.00927734 C382.48662319 123.31113858 355.30811822 126.76494468 329 120 C327.03501483 119.2043177 325.09130226 118.39063062 323.16772461 117.49926758 C317.02767599 116.08509938 311.53846517 118.84643802 306.15234375 121.45703125 C304.6438811 122.16471544 303.13541753 122.87239767 301.62695312 123.58007812 C299.29167185 124.6895987 296.9581124 125.80265193 294.62524414 126.91723633 C271.24239824 138.0477794 246.56068727 143.59388307 221 136 C218.61485754 135.11513036 216.35456304 134.14495071 214.07421875 133.01953125 C211.91891643 131.96014536 209.74435759 131.1033822 207.5 130.25 C199.83402529 127.20943729 192.43528476 123.55824337 185 120 C184.07300293 119.55640137 183.14600586 119.11280273 182.19091797 118.65576172 C180.73322998 117.95797607 180.73322998 117.95797607 179.24609375 117.24609375 C178.25246826 116.77051025 177.25884277 116.29492676 176.23510742 115.80493164 C174.30887385 114.8822237 172.38321225 113.95832031 170.45825195 113.03295898 C164.48048477 110.16458421 158.47420197 107.36465749 152.45068359 104.59375 C148.81856536 102.91620169 145.19499095 101.22138345 141.57421875 99.51953125 C140.6223468 99.07218376 140.6223468 99.07218376 139.65124512 98.61579895 C138.3397583 97.99933985 137.02829629 97.382828 135.71685791 96.76626587 C122.49156963 90.55059119 109.23184576 84.41572807 95.93945312 78.34472656 C90.74662237 75.96913588 85.56032116 73.57942962 80.375 71.1875 C79.30386963 70.69354736 78.23273926 70.19959473 77.12915039 69.69067383 C71.29038995 66.99416521 65.45911387 64.28239649 59.63671875 61.55078125 C46.22064166 55.25904299 32.7795629 49.05361241 19.21704102 43.08203125 C13.98573295 40.77845706 8.77411639 38.44297853 3.58984375 36.03515625 C-0.89369622 33.95560969 -5.39768217 31.93655005 -9.9296875 29.96484375 C-11.074375 29.46533203 -12.2190625 28.96582031 -13.3984375 28.45117188 C-15.73728409 27.43285384 -18.0784828 26.41992287 -20.421875 25.41210938 C-30.4468228 21.01909087 -37.77952065 16.96636967 -43 7 C-44.05518289 3.20134158 -44.24196463 1.7258939 -43 -2 C-29.06586296 -10.53751429 -13.70504865 -6.02514561 0 0 Z " fill="#683CC4" transform="translate(68,387)"/>
<path d="M0 0 C0 0.33 0 0.66 0 1 C-1.60717896 1.00616333 -1.60717896 1.00616333 -3.24682617 1.01245117 C-35.93663216 0.94033044 -35.93663216 0.94033044 -67.00878906 10.09643555 C-69.20033973 11.09090943 -71.42537554 11.93045029 -73.6875 12.75 C-94.17074004 20.94962777 -110.6584747 35.05434877 -122.37109375 53.62890625 C-124 56 -124 56 -126 57 C-128.54463496 57.07465009 -131.06163104 57.09128715 -133.60546875 57.0625 C-134.36289871 57.05871338 -135.12032867 57.05492676 -135.90071106 57.05102539 C-139.14326593 57.03469042 -142.38569509 57.00673718 -145.62817383 56.97949219 C-147.99559942 56.96128675 -150.36300372 56.94926139 -152.73046875 56.9375 C-153.45364792 56.92920166 -154.17682709 56.92090332 -154.92192078 56.91235352 C-167.39372489 56.85296958 -180.36277618 59.61563713 -191.92578125 64.23046875 C-194 65 -194 65 -196 65 C-196 65.66 -196 66.32 -196 67 C-196.52207031 67.20753906 -197.04414063 67.41507812 -197.58203125 67.62890625 C-212.95062061 74.0616433 -227.38223947 84.57894987 -236 99 C-236.38414062 99.59167969 -236.76828125 100.18335938 -237.1640625 100.79296875 C-240.29923105 105.83077775 -242.10120741 111.41472181 -244 117 C-245.85822073 117 -247.71669081 116.98042423 -249.57421875 116.9296875 C-259.89051322 116.74847279 -271.42918298 116.79857355 -281 121 C-282.45604807 121.44504649 -283.91436513 121.88274642 -285.375 122.3125 C-292.5390351 124.69257811 -297.68635659 128.76918174 -302 135 C-305.2548548 142.17424246 -307.16286171 150.01992655 -304.8125 157.6875 C-301.92798642 165.10482063 -297.85492005 170.00400395 -291 174 C-287.73362876 175.40686402 -284.43840216 176.64725151 -281.09375 177.85546875 C-277.96787966 179.0118829 -275.09223141 180.36724023 -272.14453125 181.90625 C-265.47199035 185.3093674 -258.57420333 188.29008617 -251.75 191.375 C-247.77440504 193.17472348 -243.8257773 195.02556161 -239.88330078 196.89624023 C-231.66407008 200.79384074 -223.38615353 204.47282128 -215 208 C-210.37262411 209.96668654 -205.7789825 211.98949632 -201.203125 214.07421875 C-199.91030874 214.66177759 -198.61741859 215.24917386 -197.32446289 215.83642578 C-196.65851105 216.13905334 -195.9925592 216.44168091 -195.306427 216.753479 C-184.89163006 221.48383851 -174.47649959 226.187113 -163.88574219 230.5144043 C-160.58612507 231.86974535 -157.36622647 233.28958955 -154.1875 234.91015625 C-149.20567499 237.44512075 -144.07360498 239.611981 -138.9375 241.8125 C-130.6545922 245.38884006 -122.44667012 249.06953078 -114.2890625 252.92333984 C-109.09796203 255.36497306 -103.89246004 257.775596 -98.6875 260.1875 C-97.58946045 260.69909668 -96.4914209 261.21069336 -95.36010742 261.73779297 C-84.2930079 266.86270749 -74.03849494 270.79801296 -62 273 C-61.26910156 273.1340625 -60.53820312 273.268125 -59.78515625 273.40625 C-40.73764285 276.30566007 -18.44313884 272.15931306 -2 262 C-0.38942117 261.31899962 1.23620041 260.67246854 2.875 260.0625 C5.95790882 258.86587465 8.84083457 257.62108091 11.6875 255.9375 C14.43794356 254.32874999 17.12494547 253.04915932 20.06640625 251.84375 C22.34976396 250.84737573 24.53811382 249.70862743 26.75 248.5625 C30.19705697 246.80782341 33.58134512 245.40678824 37.25 244.1875 C42.43905476 242.38960215 46.97297153 239.7953146 51.66259766 236.99511719 C56.53481714 234.13848455 61.52382841 232.19320692 66.83984375 230.28125 C71.22272893 228.50425823 75.11128973 226.0914719 79.14453125 223.640625 C85.06457654 220.23923099 91.50600661 218.05073476 98 216 C98 215.34 98 214.68 98 214 C103.70323363 211.09835482 109.43507703 208.42362697 115.37817383 206.05029297 C124.60916062 202.31097346 133.50461299 197.95237047 142.4375 193.5625 C145.45608156 192.08268944 148.4756508 190.60491372 151.49609375 189.12890625 C152.22414215 188.77311493 152.95219055 188.41732361 153.70230103 188.05075073 C161.17153427 184.41130944 168.69159673 180.88731503 176.30273438 177.55322266 C185.26636707 173.5896813 190.97120137 167.95621595 196.0625 159.625 C198.10668494 151.72081821 198.14181035 143.22081654 194 136 C187.47021264 126.27651602 178.05487151 122.71383127 167 120 C148.93729412 116.82597538 131.15483373 119.81554443 113.85546875 125.23046875 C111 126 111 126 107 126 C109.78707045 119.03232388 118.15175495 116.24905006 124.625 113.375 C143.6854694 105.74096187 168.77136292 101.88409409 188.5859375 108.91796875 C190.77537407 109.86720952 192.88646011 110.89352513 195 112 C195.99 112.474375 196.98 112.94875 198 113.4375 C198.99 113.953125 199.98 114.46875 201 115 C201.68835938 115.33515625 202.37671875 115.6703125 203.0859375 116.015625 C208.90668933 118.99553208 214.10382231 122.66000714 218 128 C218 129.32 218 130.64 218 132 C218.66 132 219.32 132 220 132 C224.57357402 143.88312536 225.51260503 151.4712552 220.58203125 163.3359375 C218.78435324 166.3631385 216.8105744 167.92026517 214 170 C213.4225 170.804375 212.845 171.60875 212.25 172.4375 C210.11077172 174.87384332 208.742961 175.84333595 205.953125 177.33984375 C205.1497168 177.77401611 204.34630859 178.20818848 203.51855469 178.65551758 C202.68743164 179.09919678 201.85630859 179.54287598 201 180 C200.21786133 180.42627686 199.43572266 180.85255371 198.62988281 181.29174805 C196.25976963 182.58200613 193.88096398 183.8548936 191.5 185.125 C190.70980469 185.55425781 189.91960938 185.98351562 189.10546875 186.42578125 C176.7459375 193 176.7459375 193 171 193 C171 193.66 171 194.32 171 195 C170.38253906 195.23074219 169.76507812 195.46148437 169.12890625 195.69921875 C163.09823431 198.0215323 157.5872189 200.77160802 152 204 C141.94936274 209.67303066 131.56343702 214.45517401 121.0625 219.2265625 C114.31601667 222.29446764 107.69396201 225.57031408 101.09228516 228.93554688 C85.50819805 236.86397392 69.79784585 244.50828259 54 252 C52.58702784 252.67112085 51.17410757 253.34235094 49.76123047 254.01367188 C40.89440268 258.22619747 32.0231877 262.42927822 23.14622498 266.6204071 C18.57015678 268.78183159 13.99858139 270.95229842 9.43174744 273.13316345 C6.73338956 274.41998037 4.03167961 275.69963991 1.32913208 276.97763062 C-0.49053198 277.84085917 -2.30602882 278.71285548 -4.12133789 279.58520508 C-28.01166853 290.84668104 -53.76087812 293.57822916 -79.05078125 284.921875 C-89.00690811 281.22803203 -98.54021158 276.34178275 -108.12084961 271.77807617 C-114.66153551 268.66982952 -121.25992936 265.69640789 -127.875 262.75 C-129.66028855 261.95365147 -131.44557657 261.15730176 -133.23083496 260.36088562 C-134.47530394 259.80578803 -135.71985279 259.25086946 -136.96447754 258.69612122 C-142.1315859 256.39167981 -147.29132503 254.07107781 -152.44921875 251.74609375 C-153.27007462 251.37609253 -154.09093048 251.00609131 -154.93666077 250.62487793 C-156.62476087 249.86392306 -158.31285591 249.10295696 -160.00094604 248.34197998 C-173.92247739 242.06761312 -187.85667859 235.82273554 -201.8125 229.625 C-202.56277466 229.29170685 -203.31304932 228.9584137 -204.08605957 228.61502075 C-211.34515585 225.39075349 -218.60646281 222.17168942 -225.875 218.96875 C-240.84349581 212.36238506 -255.70672351 205.5457576 -270.54711914 198.6574707 C-278.04073982 195.18331767 -285.53914292 191.73030677 -293.109375 188.42578125 C-293.72828613 188.15490692 -294.34719727 187.88403259 -294.98486328 187.60494995 C-297.78987547 186.3791698 -300.59878015 185.1642523 -303.41601562 183.96679688 C-315.45271158 178.74272857 -326.74668583 172.59985714 -332.4375 160.25 C-335.57788824 151.50273833 -334.85098693 142.20312391 -331 133.82421875 C-324.91760384 121.91952889 -314.06205801 114.40356174 -301.66015625 109.84375 C-289.05692728 105.84625006 -277.54678158 103.99031383 -265 109 C-261.875 110.6875 -261.875 110.6875 -260 112 C-259.90976562 111.19046875 -259.81953125 110.3809375 -259.7265625 109.546875 C-255.36658066 88.2626626 -239.43783781 69.15542437 -221.79931641 57.14941406 C-212.2500212 51.04926727 -201.97247963 46.77665438 -191 44 C-189.35644531 43.55333984 -189.35644531 43.55333984 -187.6796875 43.09765625 C-171.81529735 39.17673067 -156.86051247 41.07511954 -141 44 C-140.63841797 43.16275391 -140.63841797 43.16275391 -140.26953125 42.30859375 C-136.67676688 35.77528993 -130.37649245 30.10766783 -125 25 C-124.41476563 24.41992188 -123.82953125 23.83984375 -123.2265625 23.2421875 C-92.68164219 -5.71303436 -38.82928201 -15.38518721 0 0 Z " fill="#C9C6FC" transform="translate(362,123)"/>
<path d="M0 0 C4.15991244 2.96815374 7.10755372 5.3650531 8.16796875 10.546875 C7.66571777 10.782854 7.1634668 11.01883301 6.64599609 11.26196289 C-5.4355889 16.93451045 -5.4355889 16.93451045 -17.39453125 22.859375 C-21.97027101 25.18261029 -26.58914876 27.35846709 -31.265625 29.47265625 C-32.42570068 29.99883545 -33.58577637 30.52501465 -34.78100586 31.06713867 C-37.10753765 32.1185167 -39.43767692 33.16195643 -41.77172852 34.1965332 C-48.57320499 37.27292138 -53.55851693 40.27336068 -58.83203125 45.546875 C-58.83203125 44.556875 -58.83203125 43.566875 -58.83203125 42.546875 C-60.27301736 43.31117161 -61.70969179 44.08360055 -63.14453125 44.859375 C-63.94503906 45.28863281 -64.74554687 45.71789062 -65.5703125 46.16015625 C-70.46989371 49.16421727 -71.67876255 52.45953756 -73.45703125 57.796875 C-81.58337366 80.68320222 -98.01002739 99.76833515 -119.87792969 110.55615234 C-144.44076571 121.90206058 -171.42474417 125.16387337 -197.83203125 118.546875 C-199.5144297 117.92096951 -201.18936191 117.27065651 -202.83203125 116.546875 C-202.83203125 115.886875 -202.83203125 115.226875 -202.83203125 114.546875 C-203.49203125 114.546875 -204.15203125 114.546875 -204.83203125 114.546875 C-203.79822933 111.75265611 -203.13014881 110.71304702 -200.484375 109.23828125 C-198.67317943 108.48513662 -196.8606721 107.73513888 -195.046875 106.98828125 C-192.57173482 105.71550826 -192.57173482 105.71550826 -192.0234375 102.88671875 C-191.96027344 102.11457031 -191.89710938 101.34242188 -191.83203125 100.546875 C-181.67663266 101.42427157 -181.67663266 101.42427157 -176.95703125 102.109375 C-156.16555513 104.61437212 -134.63842706 99.39969967 -117.48046875 87.27734375 C-114.77745608 85.15142056 -112.28990857 82.9500393 -109.83203125 80.546875 C-108.7646875 79.52013672 -108.7646875 79.52013672 -107.67578125 78.47265625 C-96.07452618 66.40288896 -90.33794188 50.82356599 -86.89453125 34.734375 C-84.8859746 25.47584603 -81.52855134 19.30515657 -73.83203125 13.546875 C-71.72593067 12.40762837 -69.58550439 11.33048007 -67.421875 10.3046875 C-66.50964928 9.8684053 -66.50964928 9.8684053 -65.57899475 9.42330933 C-63.64537231 8.49999623 -61.7076866 7.58562869 -59.76953125 6.671875 C-57.86428273 5.76669388 -55.9599341 4.85964508 -54.05581665 3.9520874 C-52.80377511 3.35568785 -51.55115305 2.76050543 -50.29794312 2.16656494 C-45.25841078 -0.22775859 -40.28135974 -2.73584715 -35.32250977 -5.29345703 C-23.62435378 -10.74059368 -10.29125455 -6.60996318 0 0 Z " fill="#5628B8" transform="translate(594.83203125,388.453125)"/>
<path d="M0 0 C0 0.33 0 0.66 0 1 C-1.60717896 1.00616333 -1.60717896 1.00616333 -3.24682617 1.01245117 C-35.93663216 0.94033044 -35.93663216 0.94033044 -67.00878906 10.09643555 C-69.20033973 11.09090943 -71.42537554 11.93045029 -73.6875 12.75 C-94.17074004 20.94962777 -110.6584747 35.05434877 -122.37109375 53.62890625 C-124 56 -124 56 -126 57 C-128.54463496 57.07465009 -131.06163104 57.09128715 -133.60546875 57.0625 C-134.36289871 57.05871338 -135.12032867 57.05492676 -135.90071106 57.05102539 C-139.14326593 57.03469042 -142.38569509 57.00673718 -145.62817383 56.97949219 C-147.99559942 56.96128675 -150.36300372 56.94926139 -152.73046875 56.9375 C-153.45364792 56.92920166 -154.17682709 56.92090332 -154.92192078 56.91235352 C-167.39372489 56.85296958 -180.36277618 59.61563713 -191.92578125 64.23046875 C-194 65 -194 65 -196 65 C-196 65.66 -196 66.32 -196 67 C-196.52207031 67.20753906 -197.04414063 67.41507812 -197.58203125 67.62890625 C-212.95062061 74.0616433 -227.38223947 84.57894987 -236 99 C-236.38414062 99.59167969 -236.76828125 100.18335938 -237.1640625 100.79296875 C-240.29923105 105.83077775 -242.10120741 111.41472181 -244 117 C-245.85822073 117 -247.71669081 116.98042423 -249.57421875 116.9296875 C-259.97378159 116.74701011 -271.31942651 116.88789799 -281 121 C-283.8125 121.125 -283.8125 121.125 -286 121 C-278.74058075 117.16264108 -271.12092551 115.65491335 -263 115 C-263.64067976 111.91240441 -263.64067976 111.91240441 -265.84765625 111.05078125 C-266.57855469 110.80714844 -267.30945313 110.56351562 -268.0625 110.3125 C-268.79597656 110.06113281 -269.52945313 109.80976563 -270.28515625 109.55078125 C-270.85105469 109.36902344 -271.41695312 109.18726563 -272 109 C-271.505 108.01 -271.505 108.01 -271 107 C-269.72740489 107.45341868 -268.45698757 107.91295227 -267.1875 108.375 C-266.12595703 108.75785156 -266.12595703 108.75785156 -265.04296875 109.1484375 C-263 110 -263 110 -260 112 C-259.90976562 111.19046875 -259.81953125 110.3809375 -259.7265625 109.546875 C-255.36658066 88.2626626 -239.43783781 69.15542437 -221.79931641 57.14941406 C-212.2500212 51.04926727 -201.97247963 46.77665438 -191 44 C-189.35644531 43.55333984 -189.35644531 43.55333984 -187.6796875 43.09765625 C-171.81529735 39.17673067 -156.86051247 41.07511954 -141 44 C-140.63841797 43.16275391 -140.63841797 43.16275391 -140.26953125 42.30859375 C-136.67676688 35.77528993 -130.37649245 30.10766783 -125 25 C-124.41476563 24.41992188 -123.82953125 23.83984375 -123.2265625 23.2421875 C-92.68164219 -5.71303436 -38.82928201 -15.38518721 0 0 Z " fill="#D6F8F9" transform="translate(362,123)"/>
<path d="M0 0 C0.99 0.495 0.99 0.495 2 1 C1.41992188 1.69222656 1.41992188 1.69222656 0.828125 2.3984375 C-5.7460162 10.63238662 -8.04038962 18.72914998 -9.9375 28.9375 C-11.3641345 36.55203086 -13.10633841 43.22134125 -17 50 C-17.51433594 50.91910156 -18.02867187 51.83820313 -18.55859375 52.78515625 C-27.452517 67.7179096 -41.21349007 77.51415346 -58 82 C-78.97158407 86.47736887 -98.50888835 82.91112755 -116.73828125 71.55078125 C-120.84619188 68.73413096 -124.48397068 65.51602932 -128 62 C-126.85546875 60.46484375 -126.85546875 60.46484375 -125 59 C-122.42578125 59.00390625 -122.42578125 59.00390625 -119.3125 59.5625 C-118.16007812 59.76875 -117.00765625 59.975 -115.8203125 60.1875 C-110.44308412 61.33112321 -105.13395964 62.67492487 -99.82421875 64.09765625 C-82.42636672 68.2027674 -66.10858741 66.67999249 -50.1484375 58.546875 C-35.56873803 49.42830007 -30.38763532 36.938118 -26.375 20.9453125 C-25.90030239 18.85686185 -25.90030239 18.85686185 -26.07421875 16.109375 C-26 14 -26 14 -24.6015625 12.59375 C-23.94929688 12.2328125 -23.29703125 11.871875 -22.625 11.5 C-21.89796875 11.09136719 -21.1709375 10.68273437 -20.421875 10.26171875 C-19.62265625 9.84535156 -18.8234375 9.42898438 -18 9 C-17.15953125 8.55269531 -16.3190625 8.10539062 -15.453125 7.64453125 C-11.03807401 5.36342157 -6.73129764 3.53767173 -2 2 C-1.34 1.34 -0.68 0.68 0 0 Z " fill="#3343CD" transform="translate(504,393)"/>
<path d="M0 0 C1.03108887 -0.00563965 2.06217773 -0.0112793 3.12451172 -0.01708984 C8.64730266 0.03600526 13.28206648 0.54166203 18.5625 2.3125 C19.696875 2.56128906 20.83125 2.81007813 22 3.06640625 C36.55887262 6.37088721 47.63617001 13.91450803 58.68359375 23.75 C60.4126518 25.28902589 62.16853898 26.79968854 63.97265625 28.25 C68.95845156 32.27591322 71.83266599 36.52472693 74.5625 42.3125 C70.53413989 40.86376866 67.20759751 38.89367316 63.625 36.5625 C56.90668187 32.29966205 49.94589512 29.28514958 42.5625 26.3125 C41.38816406 25.79429687 40.21382813 25.27609375 39.00390625 24.7421875 C33.97549027 22.65319743 28.86756188 21.48700375 23.5625 20.3125 C22.67046875 20.10367187 21.7784375 19.89484375 20.859375 19.6796875 C-9.81792324 13.45657843 -39.28727623 23.72620502 -66.34130859 37.3762207 C-68.36476404 38.28001195 -70.27499763 38.84901934 -72.4375 39.3125 C-70.01737833 33.74237871 -65.52494974 29.69969605 -61.4375 25.3125 C-60.8909375 24.68859375 -60.344375 24.0646875 -59.78125 23.421875 C-44.58830594 6.83366057 -21.77685121 0.11480491 0 0 Z " fill="#3070E4" transform="translate(326.4375,256.6875)"/>
<path d="M0 0 C14.97492539 3.70312688 28.60069739 12.62216522 39 24 C39 24.66 39 25.32 39 26 C38.22398437 26.20753906 37.44796875 26.41507813 36.6484375 26.62890625 C12.81087295 33.42744793 -5.79970951 47.49025091 -18 69 C-20.20322047 73.70302832 -21.78965022 78.35955241 -23.125 83.375 C-23.38700195 84.35182739 -23.38700195 84.35182739 -23.65429688 85.34838867 C-24.60375834 89.01391014 -25.24305589 92.5378686 -25.5 96.3125 C-25.665 97.529375 -25.83 98.74625 -26 100 C-28.92701931 102.02195413 -30.29685512 102 -34 102 C-34.43558788 80.12380875 -26.22537224 58.27388965 -11.28100586 42.31005859 C-7.35063894 38.23417267 -3.18886124 34.43709501 1.1015625 30.7421875 C3.16443116 28.84910227 3.89573058 27.84270206 4.23828125 25.07421875 C4.44316949 18.48544444 3.0298131 13.09286414 0.875 6.8828125 C0 4 0 4 0 0 Z " fill="#4EB4EE" transform="translate(370,126)"/>
<path d="M0 0 C6.36614928 3.83170117 9.90462976 8.64693697 12.02734375 15.73046875 C13.15161841 21.17817358 12.11230234 25.4183901 9.4453125 30.24609375 C5.83002801 35.53878689 1.24488336 38.29829629 -4.8671875 39.99609375 C-12.29112165 40.12409261 -18.67243357 38.90838869 -24.4921875 34.05859375 C-28.79618692 29.51548325 -30.25881078 25.43125704 -30.8671875 19.24609375 C-30.66734121 13.43944871 -28.77421903 8.25338464 -24.55078125 4.19140625 C-17.45086822 -1.2740885 -8.69059298 -3.2828102 0 0 Z " fill="#9242F0" transform="translate(510.4921875,97.94140625)"/>
<path d="M0 0 C5.58853577 3.11668341 10.20586879 7.68010637 12.25 13.8125 C12.97562344 20.80958314 12.94436211 26.41065299 8.671875 32.1953125 C4.45769446 36.988364 0.3019467 39.36304037 -6.07421875 40.0703125 C-12.16299731 40.35004199 -16.77351646 39.42571522 -21.75 35.8125 C-25.613598 32.13569172 -28.45020888 28.19820615 -29.12109375 22.859375 C-29.24777108 16.57021811 -29.21113549 11.63854882 -25.3828125 6.46484375 C-18.27209267 -0.73093254 -9.62292751 -3.04726038 0 0 Z " fill="#229CF2" transform="translate(178.75,56.1875)"/>
<path d="M0 0 C0.88945312 0.19335938 1.77890625 0.38671875 2.6953125 0.5859375 C14.47283261 3.35923734 30.05817752 8.5683716 39 17 C39 17.66 39 18.32 39 19 C32.13534471 17.83722366 25.37167722 16.42365994 18.60375977 14.79150391 C-15.36586939 6.62226292 -49.44816904 6.33513424 -82.80859375 17.546875 C-85.2354993 18.04869504 -86.67428539 17.7840678 -89 17 C-88 14 -88 14 -86.39624023 12.91259766 C-85.36285522 12.41832275 -85.36285522 12.41832275 -84.30859375 11.9140625 C-83.53692871 11.54297363 -82.76526367 11.17188477 -81.97021484 10.78955078 C-81.13441895 10.40524902 -80.29862305 10.02094727 -79.4375 9.625 C-78.57850098 9.22651855 -77.71950195 8.82803711 -76.83447266 8.41748047 C-52.51231126 -2.6135386 -26.13467233 -6.70601904 0 0 Z " fill="#8BC2F7" transform="translate(353,277)"/>
<path d="M0 0 C2.3671875 -0.12109375 2.3671875 -0.12109375 5 0 C9.48252925 4.08701196 11.74171352 10.07404543 12.13671875 16.078125 C11.7617226 21.52092622 9.54569537 25.90275202 6 30 C1.44928829 33.85427155 -2.96480242 35.89594487 -9 36 C-15.13935827 35.35375176 -20.38693726 34.24887357 -25 30 C-25.1484375 27.36328125 -25.1484375 27.36328125 -25 25 C-23.60587891 25.06960937 -23.60587891 25.06960937 -22.18359375 25.140625 C-12.33091179 25.53225332 -12.33091179 25.53225332 -4 21 C-0.45717302 16.15813646 0.12100985 12.22199481 0.0625 6.3125 C0.05347656 5.13300781 0.04445313 3.95351562 0.03515625 2.73828125 C0.02355469 1.83464844 0.01195312 0.93101563 0 0 Z " fill="#6D2AE3" transform="translate(511,102)"/>
<path d="M0 0 C5.28179572 1.04290234 7.76999169 4.26102274 10.8125 8.5625 C12.81118314 14.34816171 13.32800814 20.62259657 11.05078125 26.4140625 C8.09838699 31.38749637 4.59409628 34.79344359 -0.6875 37.25 C-8.95549199 39.12199819 -14.72542027 38.31086206 -22 34 C-22 32.68 -22 31.36 -22 30 C-20.97519531 29.84144531 -19.95039063 29.68289062 -18.89453125 29.51953125 C-17.53367334 29.28490058 -16.17300565 29.0491647 -14.8125 28.8125 C-14.13896484 28.71130859 -13.46542969 28.61011719 -12.77148438 28.50585938 C-7.71457509 27.59314892 -5.20642124 25.97125566 -2 22 C2.07206036 15.09637449 0.97953143 7.63562451 0 0 Z " fill="#2F6CF5" transform="translate(179,58)"/>
<path d="M0 0 C2.93565908 2.4563678 4.60586675 4.19824802 5.4375 8 C5.65549388 11.59689902 5.11525191 13.81065758 3.25 16.875 C-0.41423117 20.33566277 -1.76398136 21.01961934 -6.9375 20.9375 C-10.11450379 20.42182961 -11.20117299 19.8544706 -13.9375 17.875 C-16.44741437 14.37633149 -17 12.29748201 -17 8 C-15.79029573 4.50529878 -14.60104251 2.54800935 -11.875 0.0625 C-7.69621204 -1.48183468 -4.2373907 -1.36393408 0 0 Z " fill="#9140F3" transform="translate(431,64)"/>
<path d="M0 0 C2.9375 2.4375 2.9375 2.4375 5 5 C5.33 5.33 5.66 5.66 6 6 C6.58968059 13.07616708 6.58968059 13.07616708 4.125 16.9375 C0.84328755 20.1226915 -1.40169745 20.28500258 -5.96484375 20.21875 C-8.93774757 19.89920564 -10.70998159 18.88589752 -13 17 C-15.32849047 13.78446554 -15.54457007 10.88978623 -15 7 C-11.24875145 0.98963523 -7.09661798 -1.26433998 0 0 Z " fill="#23D3E8" transform="translate(106,122)"/>
<path d="M0 0 C3.125 0.375 3.125 0.375 6 1 C6.33 3.31 6.66 5.62 7 8 C7.94875 8.12375 8.8975 8.2475 9.875 8.375 C13 9 13 9 15 11 C14.44444444 15.55555556 14.44444444 15.55555556 13 17 C11.00041636 17.04080783 8.99954746 17.04254356 7 17 C6.67 19.31 6.34 21.62 6 24 C3.6875 24.625 3.6875 24.625 1 25 C0.01 24.34 -0.98 23.68 -2 23 C-2.1875 19.875 -2.1875 19.875 -2 17 C-2.94875 17.020625 -3.8975 17.04125 -4.875 17.0625 C-8 17 -8 17 -10 16 C-10.1875 13.125 -10.1875 13.125 -10 10 C-7 8 -7 8 -4.3125 8.375 C-3.549375 8.58125 -2.78625 8.7875 -2 9 C-2.04125 7.88625 -2.0825 6.7725 -2.125 5.625 C-2 2 -2 2 0 0 Z " fill="#2ACBEA" transform="translate(253,6)"/>
<path d="M0 0 C-1 2 -1 2 -3.01855469 2.69848633 C-3.89415039 2.90755615 -4.76974609 3.11662598 -5.671875 3.33203125 C-7.12376221 3.68938354 -7.12376221 3.68938354 -8.60498047 4.05395508 C-9.64283691 4.3042749 -10.68069336 4.55459473 -11.75 4.8125 C-30.44730921 9.53610593 -48.02436807 16.41732417 -62.97851562 28.90112305 C-66.72009066 32 -66.72009066 32 -70 32 C-54.055939 16.50912936 -23.32655562 -1.50493907 0 0 Z " fill="#3DCBEB" transform="translate(297,101)"/>
<path d="M0 0 C1 1 1 1 1.4375 3.6875 C0.89972542 7.75922184 -0.3583339 9.17780784 -3.33984375 11.86328125 C-5 13 -5 13 -7.75 13.5625 C-10 13 -10 13 -12 10 C-12 6.10491774 -11.01178823 5.01205614 -8.25 2.1875 C-4.99847482 -0.00102657 -3.78809495 -0.64938771 0 0 Z " fill="#2CADEF" transform="translate(167,62)"/>
<path d="M0 0 C0.66 1.32 1.32 2.64 2 4 C0.95600254 5.34786992 -0.11102066 6.67792729 -1.1875 8 C-1.77917969 8.7425 -2.37085938 9.485 -2.98046875 10.25 C-5 12 -5 12 -7.73828125 12.25 C-8.48464844 12.1675 -9.23101562 12.085 -10 12 C-11.43735246 9.12529507 -11.38172649 7.18105412 -11 4 C-7.57094571 0.16752756 -5.04653478 -0.4694451 0 0 Z " fill="#A45AF2" transform="translate(497,104)"/>
<path d="M0 0 C1.859375 0.61328125 1.859375 0.61328125 4 2 C8.14172448 11.13991668 9.28546337 19.45418357 5.84375 28.87109375 C3.09076968 35.81727096 -1.21300369 43.25545031 -8 47 C-8.99 46.67 -9.98 46.34 -11 46 C-10.278125 45.46375 -9.55625 44.9275 -8.8125 44.375 C-6.62202856 42.52526856 -5.06588641 40.95216984 -3.3125 38.75 C-2.1678125 37.38875 -2.1678125 37.38875 -1 36 C-0.34 36 0.32 36 1 36 C1.20496094 35.30132812 1.40992188 34.60265625 1.62109375 33.8828125 C1.89050781 32.97273438 2.15992188 32.06265625 2.4375 31.125 C2.70433594 30.22007812 2.97117187 29.31515625 3.24609375 28.3828125 C4 26 4 26 5 24 C5.79700198 16.30586545 4.12288773 9.35428964 2 2 C1.34 2 0.68 2 0 2 C0 1.34 0 0.68 0 0 Z " fill="#6E3FE9" transform="translate(580,253)"/>
<path d="M0 0 C2.86724686 0.57344937 3.8614515 0.8614515 6 3 C5.50371094 3.37511719 5.00742188 3.75023437 4.49609375 4.13671875 C2.38469528 6.76631945 2.83316746 8.49760233 3.0625 11.8125 C3.24162818 18.52980658 3.24162818 18.52980658 1.1875 21.75 C0.465625 22.4925 -0.25625 23.235 -1 24 C-1.99 24 -2.98 24 -4 24 C-3.54625 23.67 -3.0925 23.34 -2.625 23 C2.19321725 17.06988646 0.98342229 9.66757695 0.2890625 2.5625 C0.19367188 1.716875 0.09828125 0.87125 0 0 Z " fill="#267EF5" transform="translate(179,58)"/>
<path d="M0 0 C-1.37154504 2.95409701 -2.98863724 5.44008376 -5 8 C-4.34 8.33 -3.68 8.66 -3 9 C-3.7425 9.020625 -4.485 9.04125 -5.25 9.0625 C-8.42791249 10.14587926 -8.72751232 10.74474412 -10.3125 13.5625 C-10.869375 14.696875 -11.42625 15.83125 -12 17 C-12.66 17 -13.32 17 -14 17 C-12.39058223 11.84986313 -6.05654194 0 0 0 Z " fill="#3EA7EC" transform="translate(19,493)"/>
<path d="M0 0 C0.66 0.33 1.32 0.66 2 1 C-0.08237628 3.25089228 -2.16586316 5.50073882 -4.25 7.75 C-4.83652344 8.38421875 -5.42304688 9.0184375 -6.02734375 9.671875 C-8.96406669 12.83957615 -11.91433542 15.97543769 -15 19 C-13.49960153 13.97979882 -10.47883817 10.93630523 -6.9375 7.25 C-6.10508789 6.36634766 -6.10508789 6.36634766 -5.25585938 5.46484375 C-1.75430485 1.75430485 -1.75430485 1.75430485 0 0 Z " fill="#48E1EF" transform="translate(30,230)"/>
<path d="M0 0 C0.66 0.33 1.32 0.66 2 1 C-3.61 6.61 -9.22 12.22 -15 18 C-15 13.07254925 -11.31913617 10.39978807 -8 7 C-5.39491779 4.58973264 -2.72918126 2.2684104 0 0 Z " fill="#3FDCEC" transform="translate(122,171)"/>
<path d="M0 0 C0.33 0.66 0.66 1.32 1 2 C2.0725 1.649375 3.145 1.29875 4.25 0.9375 C8 0 8 0 12 1 C2.1 3.97 2.1 3.97 -8 7 C-8 6.34 -8 5.68 -8 5 C-6.25 3.7109375 -6.25 3.7109375 -4 2.375 C-3.2575 1.92898437 -2.515 1.48296875 -1.75 1.0234375 C-1.1725 0.68570313 -0.595 0.34796875 0 0 Z " fill="#9899FA" transform="translate(468,247)"/>
<path d="M0 0 C0.33 0.99 0.66 1.98 1 3 C0.67 3.66 0.34 4.32 0 5 C0.66 5 1.32 5 2 5 C2.33 6.32 2.66 7.64 3 9 C0.69 10.32 -1.62 11.64 -4 13 C-3.71517632 11.58194169 -3.42181856 10.16559621 -3.125 8.75 C-2.96257812 7.96109375 -2.80015625 7.1721875 -2.6328125 6.359375 C-2.00849925 4.03168856 -1.15161458 2.10968048 0 0 Z " fill="#605CF1" transform="translate(463,240)"/>
<path d="M0 0 C0 0.66 0 1.32 0 2 C-0.99 2.66 -1.98 3.32 -3 4 C-3.33 4.99 -3.66 5.98 -4 7 C-2.35 7 -0.7 7 1 7 C1.33 7.66 1.66 8.32 2 9 C-3.75 9.125 -3.75 9.125 -6 8 C-6.1875 5.125 -6.1875 5.125 -6 2 C-3 0 -3 0 0 0 Z " fill="#4AD8E8" transform="translate(249,14)"/>
<path d="M0 0 C0.66 0.33 1.32 0.66 2 1 C-4.15228059 4.85320287 -10.28071806 8.24087457 -17 11 C-17 10.34 -17 9.68 -17 9 C-14.91706723 7.8742531 -12.83367092 6.74937917 -10.75 5.625 C-9.58984375 4.99851562 -8.4296875 4.37203125 -7.234375 3.7265625 C-6.16703125 3.15679687 -5.0996875 2.58703125 -4 2 C-3.24203125 1.57460938 -2.4840625 1.14921875 -1.703125 0.7109375 C-1.14109375 0.47632813 -0.5790625 0.24171875 0 0 Z " fill="#6537E7" transform="translate(567,300)"/>
<path d="M0 0 C0.66 0.33 1.32 0.66 2 1 C1.87431641 1.90492188 1.87431641 1.90492188 1.74609375 2.828125 C1.64425781 3.62734375 1.54242188 4.4265625 1.4375 5.25 C1.33308594 6.03890625 1.22867188 6.8278125 1.12109375 7.640625 C0.99972651 10.00532874 1.30366743 11.7511037 2 14 C1.01 14.495 1.01 14.495 0 15 C-1.58476785 10.83998439 -2.39630501 7.45843134 -2 3 C-1.34 2.01 -0.68 1.02 0 0 Z " fill="#BFF6F6" transform="translate(55,266)"/>
<path d="M0 0 C6.93 0 13.86 0 21 0 C18 3 18 3 14.53125 3.14453125 C13.18624287 3.05035422 11.84234683 2.93906413 10.5 2.8125 C9.82324219 2.76802734 9.14648438 2.72355469 8.44921875 2.67773438 C4.87326857 2.39208155 3.0420407 2.02802713 0 0 Z " fill="#8C65D0" transform="translate(418,491)"/>
<path d="M0 0 C0.66 0.33 1.32 0.66 2 1 C-5.40384615 6.04807692 -5.40384615 6.04807692 -8 7 C-9.34342407 6.70999886 -10.67944622 6.3808236 -12 6 C-10.04669132 4.96958487 -8.08718472 3.9509107 -6.125 2.9375 C-5.03445312 2.36902344 -3.94390625 1.80054688 -2.8203125 1.21484375 C-1.42425781 0.61349609 -1.42425781 0.61349609 0 0 Z " fill="#3ED7E9" transform="translate(147,156)"/>
<path d="M0 0 C0.33 0.66 0.66 1.32 1 2 C-0.01553817 5.0466145 -1.20762558 7.31143836 -3 10 C-3.66 10 -4.32 10 -5 10 C-3.84414715 6.08788267 -2.64465038 3.1254959 0 0 Z " fill="#6640BD" transform="translate(504,442)"/>
<path d="M0 0 C-1.24176695 0.70226141 -2.49385599 1.38629109 -3.75 2.0625 C-4.79414062 2.63677734 -4.79414062 2.63677734 -5.859375 3.22265625 C-8.36140628 4.1312406 -9.5332355 3.88336837 -12 3 C-10.75823305 2.29773859 -9.50614401 1.61370891 -8.25 0.9375 C-7.20585938 0.36322266 -7.20585938 0.36322266 -6.140625 -0.22265625 C-3.63859372 -1.1312406 -2.4667645 -0.88336837 0 0 Z " fill="#6947E9" transform="translate(530,321)"/>
<path d="M0 0 C3.36179774 1.44077046 5.59156268 3.24750021 8 6 C8 6.66 8 7.32 8 8 C6 8 6 8 3.4375 5.6875 C1 3 1 3 0 0 Z " fill="#6E53E9" transform="translate(586,234)"/>
<path d="M0 0 C2.475 0.495 2.475 0.495 5 1 C4.67 2.65 4.34 4.3 4 6 C2.62437146 4.71034824 1.29233607 3.37310707 0 2 C0 1.34 0 0.68 0 0 Z " fill="#9750EE" transform="translate(482,125)"/>
<path d="M0 0 C-1.49097658 3.7952131 -3.75700849 5.61042731 -7 8 C-4.18918919 0 -4.18918919 0 0 0 Z " fill="#B875F4" transform="translate(489,101)"/>
<path d="M0 0 C0.33 0 0.66 0 1 0 C1.25 2.75 1.25 2.75 1 6 C-1 8.375 -1 8.375 -3 10 C-2.39009109 6.44219804 -1.4216319 3.3171411 0 0 Z " fill="#8758F0" transform="translate(585,277)"/>
</svg>
